# xmcd
# Track frame offsets:
# 150
# 27632
# 54794
# 79441
# 98483
# 130340
# 148009
# 168129
# 198928
# 222730
# 246142
# 269684
# 286576
#
# Disc length: 4182 seconds
# Revision: 0
# Processed by: cddbd v1.4PL0 Copyright (c) Steve Scherf et al.
# Submitted via: VisiTrax 2.9.3.171 - For more info visit www.synapsa.com
#
DISCID=be10540d
DTITLE=Big Mama - Tableau De Blues
DYEAR=2000
DGENRE=Blues
TTITLE0=That's All Right
TTITLE1=Mystery Train
TTITLE2=Saint James Infirmary
TTITLE3=My Baby
TTITLE4=Johnny, Jim o Jack
TTITLE5=I Just Can't Be Satisfied
TTITLE6=Hound Dog
TTITLE7=Georgia On My Mind
TTITLE8=13 Question Metod
TTITLE9=No M'Estimes Blues
TTITLE10=I Dare You Babe
TTITLE11=You're Gonna Need S. B. On Your Bond
TTITLE12=Love In Vain
EXTD=Big Mama: Veu, Guitarra I Pandereta\nJoan Pau Cumellas: Harmòniques\nM
EXTD=iguel Talavera: Guitarres\nEl present CD ha estat enregistrat en direc
EXTD=te a La Cova Del Drac de BCN i masteritzat a Kay Estudis de Manresa. (
EXTD=set-2000]\nTècnic De So De La Cova Del Drac: Xavi Rodríguez\nEnginye
EXTD=r De So De Kay Estudis: Josep A. Castaño (Nyanyo)
EXTT0=
EXTT1=
EXTT2=
EXTT3=
EXTT4=
EXTT5=
EXTT6=
EXTT7=
EXTT8=
EXTT9=
EXTT10=
EXTT11=
EXTT12=
PLAYORDER=
